<?xml version="1.0" encoding="utf-8"?>
<!-- Generator: Adobe Illustrator 25.2.3, SVG Export Plug-In . SVG Version: 6.00 Build 0)  -->
<svg version="1.1" id="Layer_1" xmlns="http://www.w3.org/2000/svg" xmlns:xlink="http://www.w3.org/1999/xlink" x="0px" y="0px"
	 viewBox="0 0 597 127.5" style="enable-background:new 0 0 597 127.5;" xml:space="preserve">
<style type="text/css">
	.st0{fill:#382F2D;}
	.st1{fill-rule:evenodd;clip-rule:evenodd;fill:#C10230;}
	.st2{fill:#FFFFFF;}
</style>
<g>
	<path class="st0" d="M146.9,38.6c-3.2-1.3-6.6-1.9-10.3-1.9c-8,0-14.7,2.6-20.3,7.9c-5.5,5.3-8.3,11.8-8.3,19.5
		c0,8,2.7,14.6,8,19.7c5.4,5.1,12.1,7.7,20.3,7.7c7.6,0,14.1-2.7,19.5-8.2c2.7-2.8,4.7-5.8,6.1-9.2c1.4-3.4,2.1-6.9,2.1-10.6
		c0-7.1-2.8-13.4-8.4-19C152.9,41.8,150,39.9,146.9,38.6 M135.6,89.1c-5.2,0-9.3-2.1-12.1-6.5s-4.2-10.4-4.2-18.3
		c0-7.9,1.5-14,4.6-18.5c3-4.5,7-6.8,11.7-6.8c5.3,0,9.5,2.1,12.4,6.4c3,4.3,4.5,10.4,4.5,18.4C152.5,80.7,146.9,89.1,135.6,89.1"/>
	<path class="st0" d="M231.5,87.3c-1.5-0.3-2.6-0.6-3.4-0.9c-1.3-0.6-2.1-1.3-2.4-2.2c-0.3-0.8-0.4-2.3-0.4-4.5V52.3
		c0-5.1-1.5-9-4.5-11.6c-3-2.7-7.3-4-12.9-4c-8.3,0-14.7,3.7-19.4,11.2c-0.2-2-0.3-4.5-0.6-7.3c-0.2-2.8-0.9-4.2-2.1-4.2
		c-0.2,0-1.4,0.4-3.6,1.2c-2.1,0.8-4.6,1.5-7.5,2.1c-2.9,0.6-4.4,1.2-4.4,1.8c0,0.5,0.8,0.9,2.4,1.1c1.6,0.2,2.7,0.4,3.3,0.8
		c1.2,0.6,2,1.5,2.3,2.7c0.3,1.2,0.5,3,0.5,5.5v28.1c0,2.1-0.2,3.6-0.5,4.5c-0.3,0.9-1.1,1.6-2.4,2.2c-0.6,0.3-1.7,0.6-3.3,0.9
		c-1.6,0.3-2.4,0.8-2.4,1.4c0,0.9,0.6,1.3,1.8,1.3c1.9-0.2,3.6-0.3,5.2-0.5c1.6-0.2,3.8-0.2,6.7-0.2c0.8,0,2.9,0.1,6.2,0.4
		c3.4,0.2,5.2,0.4,5.5,0.4c1.3,0,1.9-0.4,1.9-1.1c0-0.8-0.8-1.3-2.3-1.7c-1.5-0.3-2.6-0.6-3.4-0.9c-1.3-0.6-2.1-1.3-2.4-2.2
		c-0.3-0.8-0.4-2.3-0.4-4.5V57.5c0-4.9,1.4-8.9,4.3-12.1c2.9-3.2,6.4-4.8,10.4-4.8c7.4,0,11,4.2,11,12.4v26.6c0,2.1-0.2,3.6-0.5,4.5
		c-0.3,0.9-1.1,1.6-2.4,2.2c-0.6,0.3-1.7,0.6-3.3,0.9c-1.6,0.3-2.4,0.8-2.4,1.4c0,0.9,0.6,1.3,1.9,1.3c1.9-0.2,3.6-0.3,5.1-0.5
		c1.5-0.2,3.7-0.2,6.6-0.2c0.7,0,2.8,0.1,6.2,0.4c3.4,0.2,5.3,0.4,5.6,0.4c1.2,0,1.7-0.4,1.7-1.1C233.7,88.1,233,87.6,231.5,87.3"/>
	<path class="st0" d="M499.3,84.2c-0.2,0-0.9,0.4-1.9,1.2c-1.1,0.8-2,1.2-2.9,1.2c-2.6,0-3.9-2.1-3.9-6.4V50.3
		c0-9-6.7-13.5-20.2-13.5c-6.3,0-11.3,0.9-14.9,2.8c-3.6,1.9-5.4,4.2-5.4,6.9c0,2.9,1.4,4.3,4.1,4.3c1.9,0,3.2-0.5,3.9-1.6
		c0.4-0.6,0.8-2.1,1.2-4.5c0.5-3.8,3.8-5.6,10.1-5.6c7.5,0,11.3,3.1,11.3,9.2v9.3c-21.6,7.9-32.4,15.6-32.4,23.1
		c0,3.3,1.1,5.9,3.2,7.8c2.1,1.9,5.1,2.9,8.7,2.9c7.6,0,14.3-2.8,20.1-8.3c0.5,2.5,1.7,4.6,3.6,6.1c1.9,1.5,4.1,2.3,6.7,2.3
		c2.5,0,4.7-0.8,6.7-2.3c2-1.5,3-2.8,3-3.9C500.3,84.6,500,84.2,499.3,84.2 M480.6,76.7c0,2.6-1.5,5-4.4,7.1c-2.9,2.1-6,3.2-9.2,3.2
		c-2.4,0-4.3-0.8-5.7-2.4c-1.4-1.6-2.1-3.7-2.1-6.4c0-6.5,7.2-12.5,21.5-18.1V76.7z"/>
	<path class="st0" d="M293.7,31.1l-5.3-3.4c-1.5,1.3-3,2.4-4.4,3.4c-1.4,1-2.8,1.9-4.3,2.7c-1.5,0.9-3.1,1.7-4.7,2.5
		c-0.1,0-0.1,0-0.2,0.1c-1.1,0.5-3.3,1.1-6,0.8c-0.4-0.1-0.9-0.1-1.3-0.2c0,0,0,0,0,0c-1-0.1-2.1-0.2-3.1-0.2
		c-6.3,0-11.6,1.8-15.7,5.4c-4.1,3.6-6.2,8.2-6.2,13.7c0,3.9,1.1,7.4,3.4,10.4c2.3,3,5.4,5.2,9.5,6.7c-7.3,1.4-10.9,4.9-10.9,10.6
		c0,3.8,1.6,6.6,4.9,8.3c3.3,1.7,8.3,2.5,14.9,2.5c7.4,0,12.5,0.8,15.6,2.3c3,1.5,4.6,4.6,4.6,9.1c0,4.2-1.6,7.6-4.7,10
		c-3.1,2.4-7.5,3.7-13.1,3.7c-5.9,0-10.4-1.1-13.7-3.3c-3.3-2.2-4.9-5.2-4.9-8.8c0-2.6,0.5-4.7,1.5-6.3c1-1.6,2.2-2.7,3.6-3.4
		c0-1.1-1.3-1.7-4-1.7c-2.3,0-4.3,1-6.1,2.9c-1.8,2-2.7,4.2-2.7,6.8c0,4.9,2.3,8.9,6.9,12c4.6,3.1,10.6,4.6,18.3,4.6
		c8.4,0,14.9-1.8,19.6-5.5c4.7-3.6,7.1-8.6,7.1-14.9c0-6.5-2.1-11.2-6.2-14.1c-4.1-2.9-10.8-4.3-19.8-4.3c-10.7,0-16.1-1.3-16.1-3.8
		c0-2,1.2-3.4,3.5-4.2c2.4-0.8,6-1.2,10.9-1.2c7.1,0,12.5-1.6,16.1-4.7c3.6-3.2,5.4-7.7,5.4-13.5c0-4.1-1.4-8-4.1-11.8
		c-0.5-0.7-1.2-1.5-2.1-2.3l0,0c-1.6-1.3-3.2-2.4-5-3.2c0.5-0.1,1.1-0.2,1.6-0.4c1.7-0.4,3.3-0.8,4.9-1.3c1.5-0.4,3.1-0.9,4.6-1.5
		c1.6-0.6,3.3-1.3,5.3-2.1l1.8-0.3c0.9-0.1,1.4-0.4,1.5-0.8C294.6,32,294.3,31.6,293.7,31.1 M272.8,67.8c-2.1,2.8-5,4.2-8.8,4.2
		c-3.6,0-6.4-1.5-8.5-4.4c-2.1-2.9-3.1-7-3.1-12.2c0-4.9,1.1-8.9,3.2-11.9c2.2-3,4.9-4.5,8.2-4.5c3.8,0,6.8,1.4,9,4.3
		c2.2,2.9,3.2,7,3.2,12.3C276,60.9,274.9,65,272.8,67.8"/>
	<path class="st0" d="M366.6,81.2c-0.1,0.2-0.2,0.3-0.4,0.4c-1.8,2-6.7,6.2-14.4,6.2c-5.2-0.2-9.4-2.2-12.4-6.1
		c-3.1-4.1-4.7-9.8-4.7-17.3c0-8,1.5-14.2,4.6-18.6c3-4.4,7.1-6.6,12.3-6.6c2.6,0,4.4,0.4,5.4,1.3c0.6,0.6,1.4,2,2.4,4.2
		c0.9,2.3,2.5,3.4,4.7,3.4c2.5,0,3.7-1.2,3.7-3.8c0-2.2-1.4-4-4.1-5.5c-2.7-1.5-6.4-2.2-10.9-2.2c-8.3,0-15,2.4-20.3,7.2
		c-6.3,5.7-9.5,12.7-9.5,20.8c0,8.5,2.4,15,7.1,19.7c4.8,4.7,11.4,7.1,19.8,7.1c0.9,0,1.7,0,2.6-0.1c12.4-0.5,15.2-9.8,15.2-9.8
		l-0.8-1C366.9,80.8,366.7,81,366.6,81.2"/>
	<path class="st0" d="M437.9,87.2c-1.5-0.3-2.6-0.6-3.3-0.9c-1.3-0.6-2.1-1.4-2.4-2.2s-0.4-2.4-0.4-4.5V52.3c0-5.1-1.5-8.9-4.4-11.5
		c-2.9-2.6-7.3-3.9-13-3.9c-8.1,0-14.3,3.3-18.8,9.7V7.1c0-1.3-0.4-1.9-1.3-1.9c-1.9,0.5-3.8,0.9-5.6,1.3c-0.8,0.2-1.7,0.4-2.8,0.5
		L376,8.6c0,0-0.6,0.2-0.3,0.5l2.2,2.4c5-0.6,6.5,1.3,6.9,2.8c0.2,0.9,0.2,2,0.2,3.5v61.7c0,2.1-0.2,3.6-0.5,4.5
		c-0.3,0.9-1.1,1.6-2.4,2.2c-0.6,0.3-1.7,0.6-3.3,0.9c-1.6,0.3-2.4,0.8-2.4,1.4c0,0.9,0.6,1.3,1.9,1.3c1.9-0.2,3.6-0.3,5.1-0.4
		c1.5-0.2,3.7-0.2,6.6-0.2c0.7,0,2.8,0.1,6.2,0.3c3.4,0.2,5.3,0.3,5.6,0.3c1.2,0,1.7-0.4,1.7-1.1c0-0.8-0.8-1.3-2.3-1.7
		c-1.5-0.3-2.7-0.6-3.4-0.9c-1.3-0.6-2.1-1.4-2.4-2.2c-0.3-0.8-0.4-2.4-0.4-4.5V57.5c0-4.9,1.5-8.9,4.4-12.1
		c2.9-3.2,6.4-4.8,10.5-4.8c7.4,0,11,4.2,11,12.4v26.6c0,2.1-0.2,3.6-0.5,4.5c-0.3,0.9-1.1,1.6-2.4,2.2c-0.6,0.3-1.7,0.6-3.3,0.9
		c-1.6,0.3-2.4,0.8-2.4,1.4c0,0.9,0.6,1.3,1.7,1.3c1.9-0.2,3.6-0.3,5.2-0.4c1.6-0.2,3.8-0.2,6.7-0.2c0.8,0,2.9,0.1,6.2,0.3
		c3.4,0.2,5.2,0.3,5.5,0.3c1.3,0,1.9-0.4,1.9-1.1C440.2,88.1,439.4,87.5,437.9,87.2"/>
	<path class="st0" d="M100.3,56.6c-0.7,0-5.2,0.2-13.6,0.7c-3.1,0-5.8-0.1-8-0.2c-2.2-0.2-4-0.3-5.4-0.5c-1.8,0-2.7,0.4-2.7,1.3
		c0,0.7,1,1.2,3,1.6c2,0.4,3.2,0.6,3.6,0.8c2.7,1,4.1,4,4.1,8.9c0,6.6-1.7,11.5-4.9,14.6c-3.3,3.1-8.5,4.7-15.5,4.7
		c-8.4,0-15-3.3-19.8-9.8c-4.8-6.5-7.2-15.7-7.2-27.5c0-13,2.4-22.9,7.3-29.6c4.9-6.7,12.1-10,21.5-10c10.9,0,18.4,5.5,22.3,16.4
		c0.4,0.9,0.8,2.1,1.1,3.5c0.3,1.4,0.8,2.1,1.3,2.1c0.7,0,1.1-0.5,1.1-1.4l0.5-12.4l0.4-8.8l-2.2-0.7c-0.3,2.3-0.9,3.6-1.4,4.2
		c-0.2,0.2-0.8,0.8-2.1,0.3c-3.3-1.2-6.5-2.4-9.6-3.7c-3.9-1.2-8.3-1.8-13-1.8c-12.3,0-22.3,4.1-30,12.1
		c-7.7,8.1-11.6,18.6-11.6,31.5c0,11.1,3.5,20.2,10.5,27.3c7.4,7.6,16.9,11.4,28.4,11.4c5.5,0,10.8-1.1,15.8-3.1
		c3.7-1.8,7.4-3.6,11-5.5c1.2-0.5,2.5-1,4.1-1.3c1.5-0.3,3.2-0.5,5-0.5c-0.2-1.8-0.4-3.3-0.5-4.5c-0.1-1.2-0.1-2.8-0.1-4.9v-1.3
		c0-3,0.2-5.2,0.5-6.5c0.4-1.4,1.1-2.4,2.1-3c1.1-0.7,2.4-1.2,3.9-1.6c1.6-0.4,2.4-0.9,2.4-1.5C102.6,57,101.8,56.6,100.3,56.6"/>
	<path class="st1" d="M531.8,9.3h20.4c5.6,0,10.2,4.4,10.2,9.8v62.4c0,5.4-4.6,9.9-10.2,9.9h-20.4c-5.6,0-10.2-4.4-10.2-9.9V19.1
		C521.6,13.7,526.1,9.3,531.8,9.3"/>
	<path class="st2" d="M549.4,24.4c-0.8-0.8-1.9-1.1-3-0.8c-1.4-0.2-2.8-0.1-4.2-0.1h-2c-0.9,0.3-3.4,0-4.5,0.4
		c-1.5,1.7-2.2,4.2-1.5,6.4c-0.7,2.1,0.6,7.1,2.1,8.8c0.3,0.1,0.8,0.9,2,0.9c0.4,0.2,0.7,0.3,0.7,1.4c-0.7,1.7-0.9,3.5-1.4,5
		c-0.5,1-0.9,2.6-1.5,3.3c-0.1,0.6-0.2,1.4,0.2,1.9c0.3,0.1,0.5-0.3,0.7-0.3c1.6-2.6,2.3-5.6,3-8.5c0.3-0.9,0-1.2,0.8-1.9
		c0.2-0.3,0.8-0.5,1.6-0.6c1-0.1,2.3,0,2.9,0.6c0.7,2.4,0.8,5,2,7.3c0.9,1.1,0.8,3.1,2.4,3.5c0.3-0.2-0.2-0.3,0-0.6
		c0.5-1.8-0.9-3.2-1.4-4.6c-0.5-1.6-0.8-3.4-1.3-4.9c-0.1-0.7-0.4-1.7,0.5-2c0.8-0.4,1.8-0.6,2.2-1.6c0.8-1,0.7-2.8,1.1-4.1
		c0.6-1.3,0.6-2.9,0.5-4.2C550.9,27.8,551.4,25.1,549.4,24.4 M537.4,25.4c1.5,0,3.1-0.3,4.8-0.2h0.1c1.9,0.1,4.1-0.1,6,0.1
		c0.1,0.2,0.2,0.4,0.4,0.5c0.2,0.7,0.1,1.7,0.1,2.5c-0.8,0.3-1.7-0.1-2.4-0.2c-0.7,0-2.5,0.2-4.2,0.4c-1.3,0.1-2.5,0.2-2.8,0
		c-0.7,0.4-1.5-0.1-2.3,0.3c-0.4-0.3-1,0.4-1.4-0.2C535.2,27.2,536.5,26.1,537.4,25.4 M547.5,37.2c-1.1,0-2,0.9-3.1,1
		c-0.1,0.1-1.1,0.2-2.2,0.2c-1,0-2,0-2.2-0.2c-1.2,0.4-2.1-0.5-2.9-1.4c-0.1-0.7-0.9-1.8-0.8-2.5c1.6-0.6,3.9-0.1,5.8-0.3
		c0.5,0,0.9-0.1,1.2-0.2c1.1,0.6,5.2,0,5.6,0C548.6,34.8,549.1,37.1,547.5,37.2 M548.8,32.1c-2.1,0-4.2,0-6.4,0.2
		c-0.1,0-0.1-0.1-0.2-0.1c-0.9-0.1-5,0.1-5.8,0.5c-0.6-0.4-0.4-1.3-0.6-2c-0.1-1,1-0.6,1.5-0.9c0.6,0.4,2.8,0.4,4.9,0.2
		c2.4-0.2,4.7-0.5,5.1-0.5c0.5-0.5,1.2-0.2,1.5,0.3C548.8,30.7,549.4,31.5,548.8,32.1"/>
	<path class="st2" d="M555.6,20.6c-0.3-0.7-9.4-0.9-11.3-0.6c-1-0.7,0.2-2.1,0-2.9c0.3-1.5,4.7-1,6-1c1.1,0.3,2.2,0,3.4,0.3
		c0.5-0.2,1.4,0,1.5-0.6c-0.3-0.9-1.2-0.8-2-1c-3.1,0.1-6.2,0-9.4,0.2h-1.6c-3.4,0-6.8,0.1-10-0.3c-0.6,0.3-1.8,0.3-1.7,1.4
		c0.1,0,0.2,0.1,0.3,0.1c0.4,0.2,1,0.1,1.3,0.1c2.5,0.5,7.2-0.2,9.6,0.2c0.2,0.4,0.5,0.9,0.4,1.5c0.1,0.6,0.1,1.8-0.4,2.2
		c-1.7-0.2-7.3-0.5-9,0.3c-1.4-0.2-3.2-0.1-4.3,0.4c-0.2,0.5-0.1,1.2,0.5,1.4c1.4,0.2,5.2-0.6,7.1-0.5c1.5-0.4,4.2,0,6.3,0
		c0.8,0,1.4,0,1.8-0.2c1.7-0.3,9.9,0.3,11.2,0C555.5,21.3,555.7,21,555.6,20.6"/>
	<path class="st2" d="M549,59.1v-4.4c-0.1-0.1-0.2-0.1-0.3-0.1c-0.1,0-0.2,0-0.4,0v0c-0.2,0-0.3,0.1-0.4,0.1c-0.1,0-0.2,0.1-0.2,0.1
		c-0.1,0.2-0.1,0.5-0.1,0.8c0,0.3-0.1,0.7-0.1,1.1c-0.1,0.4-0.1,0.9-0.1,1.3c0,0.3,0,1.2-0.1,1.4c-0.8,0.5-1.8,0.6-2.3-1.4
		c0-0.2,0-0.3,0-0.4v-2.2c-0.2-0.2-0.4-0.5-0.5-0.6h-0.2H544h-0.3h-0.1v0.6v0.4c-0.1,0.2-0.1,0.4-0.1,0.6v0.6c0,0.1,0.1,0.3,0.1,0.4
		c0,0.1,0,0.4,0.1,0.6c0,0.2,0,0.6,0.2,0.9c0.1,0.3,0.2,0.6,0.3,1c0.1,0.3,0.2,0.5,0.2,0.7c0.2,0.2,0.4,0.3,0.7,0.5
		c0.2,0.1,0.6,0.2,0.9,0.3c0.4,0,0.7,0,1,0.1c0.3,0,0.5,0.1,0.8,0.1v0.2v0.3c0,0.1,0,0.2,0,0.3c0.1,0.1,0.1,0.2,0.1,0.2
		c0.1,0.1,0.2,0.2,0.3,0.3l0.1,0l0.6-0.2c0-0.4,0.1-0.9,0.2-1.3c0.1,0.1,0.2,0.1,0.3,0.1c0.2,0,0.4,0,0.6,0c0.2,0,0.5,0,0.6,0
		c0.2-0.1,0.3-0.1,0.4-0.1c0.3,0,0.6-0.2,0.9-0.6c0.3-0.4,0.6-1,0.9-1.7c0.3-0.8,0.4-1.5,0.3-2.2c0-0.7,0-1.2-0.1-1.6
		c-0.1-0.1-0.2-0.2-0.2-0.3c-0.1-0.1-0.1-0.1-0.2-0.1c-0.1,0-0.2,0-0.3,0c-0.1,0-0.2,0.1-0.2,0.1c-0.1,0-0.1,0.1-0.2,0.1
		c-0.1,0.2-0.2,0.4-0.2,0.6c0,0.2-0.1,0.4-0.2,0.6c0,0.3,0.1,0.6,0.2,1c0,0.4-0.2,0.8-0.3,1.2C550.6,60,549.8,59.4,549,59.1"/>
	<path class="st2" d="M539.1,74.1H539h-0.1h-0.2c0,0-0.1,0-0.2,0c-0.1,0.1-0.2,0.1-0.2,0.2c-0.1,0.1-0.1,0.2-0.1,0.3
		c0,0.2,0,0.5-0.1,0.8c-0.2,1-0.4,2-0.8,3.1c-0.2,0.6-0.5,1.2-0.8,1.7c-0.4,0.7-0.9,1.5-1.4,2.1c-0.6,0.6-1.5,1.1-1.9,1.4
		c-0.5,0.3-0.9,0.5-1.2,0.6c0,0.1-0.2,0.2-0.2,0.3v0.6v0.6c0.2,0.1,0.4,0.2,0.6,0.3c0.2,0,0.3,0,0.5-0.1c0.2,0,0.5-0.2,0.8-0.4
		c0.4-0.2,0.6-0.3,0.9-0.5c0.2-0.2,0.4-0.3,0.6-0.5c0.4-0.3,0.9-1.1,1.4-1.6c0.3-0.3,0.6-0.7,0.9-1c0.2-0.3,0.5-0.7,0.8-1.1
		c0.5-1.1,0.8-2,1.1-2.9c0.2-0.9,0.3-1.5,0.4-2v-1.5c-0.1-0.1-0.1-0.1-0.1-0.2C539.2,74.1,539.2,74.1,539.1,74.1"/>
	<path class="st2" d="M548.3,72.9c0.5,0,1,0,1.4,0c0.7-0.1,1.3-0.1,1.7-0.2c3.4-1.1-0.1-1.6-1.7-1h-1.5h-0.9c-1,0-1.7-0.1-2.4-0.1
		c-0.7-0.1-1.1-0.1-1.5-0.1c0-0.1,0.1-0.3,0.1-0.6c0.1-0.3-0.1-1.5-0.1-1.8c0-0.4,0.1-0.6,0.1-0.8c0.1-0.2,0.1-0.4,0.1-0.5
		c0-0.7,0.1-1.2-0.1-1.5c-0.2-0.5-0.9-0.8-1.1-0.7c-0.2,0-0.5,0.5-0.7,0.9c-0.1,0.4,0,1,0.1,1.5l0.2,3.5c-1.4,0-3.2,0.3-4.9,0.2
		c-0.3-0.1-0.5-0.1-0.8-0.1c-0.8-0.1-2.2-0.3-3-0.1c-0.9,0.2-1.7,0.8,0.1,1.3c0.3,0,0.6,0.1,1.1,0.1h1.7h0.9h0.9h1.3h2.5
		c-0.1,3.8,0,7.6,0,11.4v0.2V85c0,0.2,0,0.4,0,0.5c0.1,0.1,0.1,0.2,0.1,0.4c0.1,0.1,0.1,0.1,0.2,0.2c0,0,0.1,0,0.2,0.1h0.3h0.2
		c0.2-0.1,0.4-0.2,0.6-0.3v-0.2v-0.4v-0.4v-0.2V72.9c0.4,0,0.8,0,1.4,0h2.4C547.7,72.9,548.1,72.9,548.3,72.9"/>
	<path class="st2" d="M533.4,67.6c0.3,0,0.8-0.1,1.3-0.3c0.4-0.1,0.6-0.2,0.9-0.3v-0.1c0.6-0.2,1.1-0.4,1.6-0.6
		c0.6-0.3,1.2-0.5,1.9-0.7c1.1-0.5,2.4-1.3,3.6-1.4c1-0.1,3,0.9,3.9,1.3c0.5,0.3,1.1,0.6,1.7,0.9c0.8,0.4,1.5,0.8,2.3,1.1
		c0.5,0.2,1,0.2,1.4,0.3c0.4,0,1,0,1.2-0.1c0-2-0.1-1.4-2.3-2.3c-0.8-0.4-1.6-0.8-2.6-1.2c0-0.1-0.2-0.1-0.3-0.1
		c-1-0.4-1.9-0.7-2.7-1c-0.8-0.4-2-0.6-2.6-0.9c-0.6,0.2-1,0.4-1.9,0.8c-0.9,0.3-1.7,0.7-2.9,1.2c-0.2,0.1-0.5,0.2-0.8,0.4
		c-0.9,0.3-1.6,0.6-2.3,0.8c-0.9,0.3-1.5,0.5-2.2,0.7c-0.1,0.2-0.2,0.4-0.3,0.6C532.4,67.5,532,67.4,533.4,67.6"/>
	<path class="st2" d="M552.7,84.6c-1.7-0.7-2.7-1.5-3.4-3.4c-0.2-0.4-0.5-0.9-0.8-1.5c0-0.1-0.1-0.2-0.2-0.4c-0.2-0.5-0.5-1-0.7-1.7
		c-0.2-0.8-0.4-1.4-0.5-2c-0.1-0.6-0.2-1-0.3-1.4c-0.1-0.1-0.2-0.1-0.2-0.2c-0.1-0.1-0.2-0.1-0.3-0.1h-0.2h-0.2
		c-0.1,0.3-0.3,0.6-0.4,0.9v0.2v0.3v0.3v0.2c0.1,0.4,0.2,0.9,0.4,1.4c0.2,0.6,0.5,1.4,0.8,2.2c0.3,0.8,0.5,1.3,0.8,1.9
		c0.3,0.6,0.6,1.1,0.9,1.5l0.1,0.1c0.3,0.3,0.6,0.6,0.9,1c0.3,0.4,0.8,0.8,1.4,1.3c0.5,0.4,1,0.7,1.4,0.8c0.4,0.1,0.8,0.1,1,0
		c0,0,0-0.1,0.1-0.2c0-0.1,0-0.1,0-0.2c0.1,0,0.1-0.1,0.2-0.1c0-0.1,0-0.1,0.1-0.1C553.4,85.3,552.9,84.7,552.7,84.6"/>
	<path class="st2" d="M533.6,55.6c-0.1-0.4-0.2-0.6-0.3-0.8c0,0,0-0.1-0.1-0.1s-0.2-0.1-0.2-0.1c-0.1,0-0.2,0-0.2,0
		c-0.1,0-0.1,0.1-0.2,0.1c0,0.1,0,0.3,0,0.5c-0.1,0.2-0.1,0.5-0.1,0.8c0,0.3,0,0.5,0,0.7v0.6v0.2v0.3v0.3v0.2c0.2,0.5,0.4,1,0.7,1.5
		c0.4,0.5,0.8,0.9,1.2,1.1c0.5,0.2,0.9,0.3,1.3,0.3c0.4,0,0.7,0,0.9,0c0.1,0.6,0.1,1.1,0.2,1.6h0.2h0.2h0.1c0.2,0,0.2-0.1,0.3-0.1
		c0.1-0.1,0.2-0.1,0.2-0.2v-0.3v-0.4c0-0.1,0-0.3,0.1-0.4c0-0.1,0-0.2,0-0.2c0.2-0.1,0.5-0.1,0.8-0.1c0.3,0,0.7,0,1.1-0.2
		c0.4-0.1,0.8-0.3,1.1-0.6c0.4-0.4,0.6-0.7,0.9-1.1v-0.9V57c0-0.5,0-0.8-0.1-1.2c-0.1-0.3-0.1-0.6-0.2-0.8c0-0.1-0.1-0.2-0.2-0.3
		h-0.5c-0.1,0-0.2,0.2-0.3,0.3v2.5c-0.2,0.4-0.4,0.7-0.6,1c-1.1,1.4-1,0.3-2.2,0.4v-1c0-0.4,0-0.8,0-1.3c-0.1-0.5-0.1-0.9-0.1-1.1
		v-0.8c-0.1-0.1-0.2-0.1-0.4-0.1c0,0-0.2,0-0.3,0c0,0,0,0,0,0c-0.2,0-0.3,0.1-0.4,0.1c-0.1,0-0.2,0.1-0.2,0.1c0,0.2,0,0.4,0,0.7
		c0,0.3,0,0.6-0.1,1c0,0.4,0,0.7,0,1v0.8c0,0.2,0.1,0.4,0.2,0.6c-1.3,0.7-1.9,0.7-2.5-1c-0.1-0.3-0.3-0.6-0.4-1.1
		C533.7,56.3,533.7,55.9,533.6,55.6"/>
</g>
</svg>
